<svg width="922" height="189" viewBox="0 0 922 189" fill="none" xmlns="http://www.w3.org/2000/svg"
    onclick="changerect()">
    <script type="text/ecmascript"><![CDATA[
      function changerect(evt) {
        alert('hacked')
      }
    ]]>
  </script>
    <style type="text/css">

        @keyframes fader {
        from {
        opacity: 0;
        }

        to {
        width: 1;
        }
        }

        #full{
        animation-duration: 1s;
        animation-name: fader;
        animation-iteration-count: infinite;
        animation-direction: alternate;
        }

    </style>
    <path id="full"
        d="M0.0322876 20.0077H26.4601V158.918H99.7114V183.356H0.0322876V20.0077ZM125.852 20.0077C134.9 20.0077 142.369 27.0104 142.369 36.0138C142.369 45.1602 134.9 52.4487 125.852 52.4487C116.659 52.4487 109.334 45.1602 109.334 36.0138C109.334 27.0104 116.659 20.0077 125.852 20.0077ZM112.925 65.5965H138.347V183.356H112.925V65.5965ZM153.284 65.5965H178.707V81.8884C186.176 69.4552 199.102 62.4525 216.194 62.4525C243.771 62.4525 261.007 83.889 261.007 117.902V183.356H235.584V120.189C235.584 98.1805 225.961 85.7469 208.438 85.7469C189.336 85.7469 178.707 98.7518 178.707 122.332V183.356H153.284V65.5965ZM274.364 20.0077H299.787V123.333L347.184 65.7394H379.07L328.512 124.619L379.07 183.356H347.184L299.787 125.906V183.356H274.364V20.0077ZM388.98 35.585H414.834V65.5965H444.996V86.6042H414.834V147.199C414.834 154.916 419.573 159.632 426.898 159.632H443.847V183.356H423.451C401.332 183.356 388.98 170.351 388.98 147.199V35.585ZM458.052 65.5965H481.621V80.1738C487.941 69.0264 498.426 62.4525 511.353 62.4525C515.231 62.4525 517.385 62.5954 520.258 63.5958V87.1762C518.534 86.7476 515.949 86.3189 510.778 86.3189C492.107 86.3189 481.765 101.896 481.765 128.907V183.356H456.343V65.5965H458.052ZM579.576 62.4525C607.584 62.4525 637.89 79.3158 637.89 127.191V130.621H546.829C548.84 151.629 561.049 163.206 581.444 163.206C596.094 163.206 608.589 155.345 611.319 144.341H637.172C634.586 167.921 610.026 186.5 581.444 186.5C544.818 186.5 521.837 162.777 521.837 124.334C521.837 90.3201 544.1 62.4525 579.576 62.4525ZM610.888 109.613C607.297 95.0366 595.806 85.8903 579.72 85.8903C564.208 85.8903 553.292 95.3219 548.983 109.613H610.888ZM706.976 62.4525C734.983 62.4525 765.289 79.3158 765.289 127.191V130.621H674.228C676.239 151.629 688.447 163.206 708.843 163.206C723.493 163.206 735.989 155.345 738.717 144.341H764.571C761.986 167.921 737.425 186.5 708.843 186.5C672.217 186.5 649.237 162.777 649.237 124.334C649.237 90.3201 671.356 62.4525 706.976 62.4525ZM738.143 109.613C734.552 95.0366 723.062 85.8903 706.832 85.8903C691.32 85.8903 680.404 95.3219 676.095 109.613H738.143ZM771.608 62.0237H816.993L784.677 31.4406L802.488 13.2908L833.229 44.7314V0H859.943V44.7314L890.676 13.2908L908.487 31.4406L876.171 62.0237H921.558V87.3188H875.881L908.346 118.76L890.535 136.481L846.441 92.3214L802.347 136.481L784.536 118.76L816.993 87.3188H771.322V62.0237H771.608ZM833.37 123.476H860.084V183.499H833.37V123.476Z"
        fill="#502274" />
</svg>